<svg width="30" height="30" viewBox="0 0 30 30" fill="none" xmlns="http://www.w3.org/2000/svg">
<path d="M28.25 28.1025L19.5 19.4017M2 12.151C2 13.484 2.26405 14.804 2.77706 16.0356C3.29008 17.2672 4.04202 18.3862 4.98995 19.3288C5.93788 20.2714 7.06324 21.0191 8.30177 21.5293C9.54031 22.0394 10.8678 22.302 12.2083 22.302C13.5489 22.302 14.8764 22.0394 16.1149 21.5293C17.3534 21.0191 18.4788 20.2714 19.4267 19.3288C20.3746 18.3862 21.1266 17.2672 21.6396 16.0356C22.1526 14.804 22.4167 13.484 22.4167 12.151C22.4167 10.8179 22.1526 9.49794 21.6396 8.26637C21.1266 7.0348 20.3746 5.91576 19.4267 4.97315C18.4788 4.03055 17.3534 3.28283 16.1149 2.7727C14.8764 2.26256 13.5489 2 12.2083 2C10.8678 2 9.54031 2.26256 8.30177 2.7727C7.06324 3.28283 5.93788 4.03055 4.98995 4.97315C4.04202 5.91576 3.29008 7.0348 2.77706 8.26637C2.26405 9.49794 2 10.8179 2 12.151Z" stroke="#111111" stroke-width="2.91667" stroke-linecap="round" stroke-linejoin="round"/>
</svg>
